<svg width="106" height="35" viewBox="0 0 106 35" fill="none" xmlns="http://www.w3.org/2000/svg">
<path d="M75.1345 34.9999L68.5439 23.2239L61.9387 11.4333L75.3823 16.0064L88.3302 11.4333L81.7396 23.2239L75.1345 34.9999Z" fill="#443659"/>
<path d="M75.1345 30.5584L68.5439 19.6444L61.9387 8.73035L75.3823 12.9528L88.3302 8.73035L81.7396 19.6444L75.1345 30.5584Z" fill="#8C4A6E"/>
<path d="M75.1352 24.7143L68.5446 15.7143L61.9395 6.71423L75.3831 10.2061L88.331 6.71423L81.7404 15.7143L75.1352 24.7143Z" fill="#F2756A"/>
<path d="M88.3307 6.71423H61.9392L75.3828 10.2061L88.3307 6.71423Z" fill="#F2B885"/>
<path d="M68.8358 22.026C72.3147 22.026 75.1348 19.2002 75.1348 15.7143C75.1348 12.2284 72.3147 9.40259 68.8358 9.40259C65.357 9.40259 62.5369 12.2284 62.5369 15.7143C62.5369 19.2002 65.357 22.026 68.8358 22.026Z" fill="#895A4C"/>
<path d="M68.8354 20.5942C71.525 20.5942 73.7054 18.4094 73.7054 15.7143C73.7054 13.0192 71.525 10.8344 68.8354 10.8344C66.1457 10.8344 63.9653 13.0192 63.9653 15.7143C63.9653 18.4094 66.1457 20.5942 68.8354 20.5942Z" fill="#F2F2F2"/>
<path d="M68.8355 16.6202C69.4878 16.6202 70.0165 16.0903 70.0165 15.4367C70.0165 14.7831 69.4878 14.2533 68.8355 14.2533C68.1832 14.2533 67.6544 14.7831 67.6544 15.4367C67.6544 16.0903 68.1832 16.6202 68.8355 16.6202Z" fill="black"/>
<path d="M81.4336 22.026C84.9124 22.026 87.7326 19.2002 87.7326 15.7143C87.7326 12.2284 84.9124 9.40259 81.4336 9.40259C77.9548 9.40259 75.1346 12.2284 75.1346 15.7143C75.1346 19.2002 77.9548 22.026 81.4336 22.026Z" fill="#895A4C"/>
<path d="M81.4331 20.5942C84.1228 20.5942 86.3032 18.4094 86.3032 15.7143C86.3032 13.0192 84.1228 10.8344 81.4331 10.8344C78.7435 10.8344 76.5631 13.0192 76.5631 15.7143C76.5631 18.4094 78.7435 20.5942 81.4331 20.5942Z" fill="#F2F2F2"/>
<path d="M81.4334 16.6202C82.0857 16.6202 82.6144 16.0903 82.6144 15.4367C82.6144 14.7831 82.0857 14.2533 81.4334 14.2533C80.7811 14.2533 80.2523 14.7831 80.2523 15.4367C80.2523 16.0903 80.7811 16.6202 81.4334 16.6202Z" fill="black"/>
<path d="M7.79199 21H4.69492V9.14434H0.394531V6.63906H12.1516V9.14434H7.79199V21ZM11.9839 15.5653C11.9839 14.5264 12.1812 13.5993 12.5757 12.7839C12.9702 11.9619 13.5456 11.3143 14.3018 10.8408C15.0579 10.3674 15.9752 10.1307 17.0536 10.1307C18.1452 10.1307 19.069 10.3674 19.8252 10.8408C20.588 11.3143 21.1633 11.9619 21.5513 12.7839C21.9458 13.5993 22.1431 14.5264 22.1431 15.5653V15.7725C22.1431 16.8048 21.9458 17.732 21.5513 18.5539C21.1633 19.3693 20.5912 20.0137 19.8351 20.4871C19.0789 20.9605 18.1583 21.1973 17.0733 21.1973C15.9884 21.1973 15.0645 20.9605 14.3018 20.4871C13.5456 20.0137 12.9702 19.3693 12.5757 18.5539C12.1812 17.732 11.9839 16.8048 11.9839 15.7725V15.5653ZM14.9725 15.7725C14.9725 16.3314 15.0382 16.841 15.1697 17.3013C15.3012 17.7616 15.5215 18.1265 15.8306 18.3961C16.1396 18.6657 16.5539 18.8005 17.0733 18.8005C17.8427 18.8005 18.3819 18.5079 18.6909 17.9227C19.0065 17.3309 19.1644 16.6141 19.1644 15.7725V15.5653C19.1644 15.0196 19.0953 14.5165 18.9572 14.0562C18.8257 13.596 18.6054 13.2277 18.2964 12.9516C17.9939 12.6688 17.5797 12.5274 17.0536 12.5274C16.5407 12.5274 16.133 12.6688 15.8306 12.9516C15.5281 13.2277 15.3078 13.596 15.1697 14.0562C15.0382 14.5165 14.9725 15.0196 14.9725 15.5653V15.7725ZM23.4056 15.5851C23.4056 14.5001 23.5667 13.5499 23.8889 12.7346C24.2176 11.9126 24.6911 11.2748 25.3092 10.8211C25.9339 10.3608 26.6933 10.1307 27.5876 10.1307C28.1202 10.1307 28.5937 10.2293 29.0079 10.4266C29.4222 10.6238 29.7871 10.9033 30.1027 11.2649V5.85H33.1012V21H30.4085L30.2605 19.8756C29.9383 20.2898 29.5537 20.6153 29.1065 20.8521C28.6594 21.0822 28.1465 21.1973 27.5679 21.1973C26.6868 21.1973 25.9339 20.9638 25.3092 20.497C24.6911 20.0235 24.2176 19.3791 23.8889 18.5638C23.5667 17.7484 23.4056 16.8245 23.4056 15.7922V15.5851ZM26.3843 15.7922C26.3843 16.6273 26.5257 17.3341 26.8084 17.9128C27.0977 18.4914 27.604 18.7808 28.3273 18.7808C28.7613 18.7808 29.123 18.6887 29.4123 18.5046C29.7082 18.3205 29.9383 18.064 30.1027 17.7353V13.5828C29.7608 12.8924 29.1756 12.5472 28.3471 12.5472C27.6303 12.5472 27.124 12.8398 26.8281 13.425C26.5322 14.0036 26.3843 14.7237 26.3843 15.5851V15.7922Z" fill="#F2756A"/>
<path d="M38.526 21H35.419V6.63906H38.526V12.4091H44.1086V6.63906H47.2057V21H44.1086V14.9045H38.526V21ZM49.0698 15.5653C49.0698 14.5264 49.2671 13.5993 49.6616 12.7839C50.0562 11.9619 50.6315 11.3143 51.3877 10.8408C52.1439 10.3674 53.0612 10.1307 54.1396 10.1307C55.2311 10.1307 56.155 10.3674 56.9111 10.8408C57.6739 11.3143 58.2493 11.9619 58.6372 12.7839C59.0317 13.5993 59.229 14.5264 59.229 15.5653V15.7725C59.229 16.8048 59.0317 17.732 58.6372 18.5539C58.2493 19.3693 57.6772 20.0137 56.921 20.4871C56.1648 20.9605 55.2442 21.1973 54.1593 21.1973C53.0743 21.1973 52.1505 20.9605 51.3877 20.4871C50.6315 20.0137 50.0562 19.3693 49.6616 18.5539C49.2671 17.732 49.0698 16.8048 49.0698 15.7725V15.5653ZM52.0584 15.7725C52.0584 16.3314 52.1242 16.841 52.2557 17.3013C52.3872 17.7616 52.6075 18.1265 52.9165 18.3961C53.2256 18.6657 53.6398 18.8005 54.1593 18.8005C54.9286 18.8005 55.4678 18.5079 55.7769 17.9227C56.0925 17.3309 56.2503 16.6141 56.2503 15.7725V15.5653C56.2503 15.0196 56.1813 14.5165 56.0432 14.0562C55.9117 13.596 55.6914 13.2277 55.3823 12.9516C55.0799 12.6688 54.6656 12.5274 54.1396 12.5274C53.6267 12.5274 53.219 12.6688 52.9165 12.9516C52.614 13.2277 52.3938 13.596 52.2557 14.0562C52.1242 14.5165 52.0584 15.0196 52.0584 15.5653V15.7725ZM94.1253 16.5418H91.6693L91.3143 6.63906H94.4804L94.1253 16.5418ZM91.2354 19.5994C91.2354 19.1523 91.3866 18.7808 91.6891 18.4849C91.9915 18.1824 92.3926 18.0312 92.8924 18.0312C93.3987 18.0312 93.8031 18.1824 94.1056 18.4849C94.408 18.7808 94.5593 19.1523 94.5593 19.5994C94.5593 20.0465 94.408 20.4214 94.1056 20.7238C93.8031 21.0197 93.3987 21.1677 92.8924 21.1677C92.3926 21.1677 91.9915 21.0197 91.6891 20.7238C91.3866 20.4214 91.2354 20.0465 91.2354 19.5994Z" fill="#F2B885"/>
</svg>
